<?xml version="1.0" encoding="utf-8" standalone="no"?>
<!DOCTYPE svg PUBLIC "-//W3C//DTD SVG 1.1//EN" "http://www.w3.org/Graphics/SVG/1.1/DTD/svg11.dtd">
<svg width="3000px" height="3000px" version="1.1" xmlns="http://www.w3.org/2000/svg" xmlns:xlink="http://www.w3.org/1999/xlink">
<g id="ideograms">
<path d="M1500.000,425.000 A1075.000,1075.000 40.000 1,1 1463.747,2574.389 L1462.061,2624.360 A1125.000,1125.000 0.000 1,0 1500.000,375.000 Z" style="stroke-linecap:round;fill:rgb(116,196,118);fill-opacity:0.33;" />
<text x="2714.6" y="1530.0" font-size="18.2px" font-family="CMUBright-Roman" style="text-anchor:start;fill:rgb(0,0,0);" transform="rotate(1.0,2714.6,1530.0)" >Contig<tspan baseline-shift="-40%" font-size="90%">1</tspan></text>
<line x1='1500.0' y1='375.0' x2='1500.0' y2='355.0' style="stroke-width:4.0;stroke:rgb(0,0,0);stroke-linecap:round;fill:none;" />
<text x="1506.5" y="345.0" font-size="18.2px" font-family="CMUBright-Roman" style="text-anchor:start;fill:rgb(0,0,0);" transform="rotate(270.0,1506.5,345.0)" >0</text>
<g id="highlighttrack_0">
<path d="M1745.691,453.453 A1075.000,1075.000 40.000 0,1 1706.047,2555.069 L1715.631,2604.141 A1125.000,1125.000 0.000 0,0 1757.118,404.776 Z" style="stroke-width:4.0;stroke:rgb(0,0,0);stroke-linecap:round;fill:rgb(116,196,118);" />
</g>
<path d="M1397.676,2570.119 A1075.000,1075.000 40.000 0,1 1433.822,427.039 L1430.744,377.134 A1125.000,1125.000 0.000 0,0 1392.917,2619.892 Z" style="stroke-linecap:round;fill:rgb(116,196,118);fill-opacity:0.33;" />
<text x="285.0" y="1489.0" font-size="18.2px" font-family="CMUBright-Roman" style="text-anchor:end;fill:rgb(0,0,0);" transform="rotate(1.0,285.0,1489.0)" >Contig<tspan baseline-shift="-40%" font-size="90%">s</tspan>h4FINAL</text>
<line x1='1392.9' y1='2619.9' x2='1391.0' y2='2639.8' style="stroke-width:4.0;stroke:rgb(0,0,0);stroke-linecap:round;fill:none;" />
<text x="1396.5" y="2650.4" font-size="18.2px" font-family="CMUBright-Roman" style="text-anchor:end;fill:rgb(0,0,0);" transform="rotate(-84.5,1396.5,2650.4)" >0</text>
<g id="highlighttrack_0">
<path d="M1392.336,2569.595 A1075.000,1075.000 40.000 0,1 1433.822,427.039 L1430.744,377.134 A1125.000,1125.000 0.000 0,0 1387.329,2619.344 Z" style="stroke-width:4.0;stroke:rgb(0,0,0);stroke-linecap:round;fill:rgb(116,196,118);" />
</g>
</g>
<g id="track_0">
<path d="M 1393.413,2558.899 A 1064.250,1064.250 0.00 0,1 1434.5,437.8 L 1434.5,437.8 1440.3,511.9 1448.0,582.7 1457.4,650.2 1468.1,714.8 1479.9,776.6 1492.4,835.8 1505.4,892.6 1518.7,947.3 1532.1,1000.0 1545.4,1051.0 1558.3,1100.3 1570.8,1148.3 1582.6,1195.0 1593.8,1240.8 1604.1,1285.7 1613.6,1329.9 1622.1,1373.7 1629.7,1417.2 1636.2,1460.5 1641.8,1503.9 1646.3,1547.5 1650.0,1591.5 1652.7,1636.0 1654.7,1681.2 1656.0,1727.3 1656.7,1774.3 1657.0,1822.6 1657.0,1872.1 1656.9,1923.2 1656.9,1975.8 1657.3,2030.2 1658.2,2086.4 1659.9,2144.7 1662.6,2205.2 1666.8,2267.9 1672.7,2333.1 1680.6,2400.9 1690.9,2471.3 1704.0,2544.5  A 1064.250,1064.250 0.00 0,0 1743.2,463.9 L 1743.2,463.9 1727.4,536.6 1714.5,606.6 1704.0,674.0 1695.7,738.9 1689.1,801.5 1684.1,861.8 1680.2,920.0 1677.1,976.2 1674.7,1030.5 1672.7,1083.1 1670.9,1134.1 1669.0,1183.6 1666.9,1231.8 1664.4,1278.8 1661.4,1324.8 1657.7,1369.9 1653.2,1414.3 1647.9,1458.1 1641.7,1501.5 1634.5,1544.6 1626.3,1587.7 1617.1,1630.8 1606.9,1674.3 1595.7,1718.1 1583.6,1762.6 1570.7,1807.9 1557.1,1854.1 1542.7,1901.6 1527.9,1950.4 1512.7,2000.8 1497.3,2053.0 1481.9,2107.1 1466.7,2163.4 1451.9,2222.1 1437.8,2283.4 1424.6,2347.5 1412.6,2414.6 1402.1,2485.0 1393.4,2558.9  Z" style="stroke-width: 2.0;  stroke: rgb(82,82,82); fill: rgb(251,106,74); opacity: 0.667;" />
</g>
<defs>
<pattern id="hline-sparse" width="10" height="10" patternTransform="rotate(0 0 0)" patternUnits="userSpaceOnUse"><line x1="0" y1="0" x2="10" y2="0" style="stroke:black;stroke-width:2" /></pattern>
<pattern id="checker" width="10" height="10" patternTransform="rotate(45 0 0)" patternUnits="userSpaceOnUse"><line x1="0" y1="0" x2="10" y2="0" style="stroke:black;stroke-width:2" /><line x1="0" y1="0" x2="0" y2="10" style="stroke:black;stroke-width:2" /></pattern>
<pattern id="checker" width="10" height="10" patternTransform="rotate(45 0 0)" patternUnits="userSpaceOnUse"><line x1="0" y1="0" x2="10" y2="0" style="stroke:black;stroke-width:5" /><line x1="0" y1="0" x2="0" y2="10" style="stroke:black;stroke-width:4" /></pattern>
<pattern id="hline" width="10" height="10" patternTransform="rotate(0 0 0)" patternUnits="userSpaceOnUse"><line x1="0" y1="0" x2="10" y2="0" style="stroke:black;stroke-width:5" /></pattern>
<pattern id="vline-sparse" width="10" height="10" patternTransform="rotate(0 0 0)" patternUnits="userSpaceOnUse"><line x1="0" y1="0" x2="0" y2="10" style="stroke:black;stroke-width:2" /></pattern>
<pattern id="vline" width="10" height="10" patternTransform="rotate(0 0 0)" patternUnits="userSpaceOnUse"><line x1="0" y1="0" x2="0" y2="10" style="stroke:black;stroke-width:5" /></pattern>
</defs>
</svg>
